<svg xmlns="http://www.w3.org/2000/svg" width="118" height="118" viewBox="0 0 118 118">
    <g fill="none" fill-rule="evenodd">
        <path stroke="#D8D8D8" d="M117 59c0 32.033-25.969 58-58.001 58C26.966 117 1 91.033 1 59S26.966 1 58.999 1"/>
        <path fill="#EFEFEF" d="M62.023 27.553h14.72L65.087 72.104h-9.78l6.716-44.55zm-12.938 60.45c0-4.57 3.556-7.903 8.2-7.903 4.444 0 7.504 2.952 7.504 6.853 0 4.382-3.553 7.903-8.197 7.903-4.346 0-7.507-3.14-7.507-6.854z"/>
        <path fill="#D8D8D8" d="M58.339 22.022h14.717l-11.653 44.55h-9.781l6.717-44.55zm-4.742 52.546c4.447 0 7.508 2.953 7.508 6.854 0 4.382-3.553 7.902-8.2 7.902-4.347 0-7.508-3.14-7.508-6.854 0-4.569 3.56-7.902 8.2-7.902z"/>
    </g>
</svg>
