<?xml version="1.0" encoding="UTF-8"?>
<svg width="43px" height="15px" viewBox="0 0 43 15" version="1.1" xmlns="http://www.w3.org/2000/svg" xmlns:xlink="http://www.w3.org/1999/xlink">
    <!-- Generator: Sketch 52.5 (67469) - http://www.bohemiancoding.com/sketch -->
    <title>copy copy 7</title>
    <desc>Created with Sketch.</desc>
    <g id="copy-copy-7" stroke="none" stroke-width="1" fill="none" fill-rule="evenodd" opacity="0.6">
        <g id="Group" transform="translate(0.000000, 1.000000)">
            <path d="M26.8126,8.5806 L24.9546,8.5836 L24.9576,11.0066 L23.4286,11.0086 L23.4156,2.6126 L26.8036,2.6076 C28.9686,2.6036 30.3106,3.7296 30.3136,5.5886 C30.3166,7.4356 28.9776,8.5766 26.8126,8.5806 Z M26.7349,3.9272 L24.9469,3.9302 L24.9519,7.2642 L26.7399,7.2612 C28.0819,7.2592 28.7749,6.6472 28.7729,5.5912 C28.7709,4.5352 28.0759,3.9252 26.7349,3.9272 Z" id="Combined-Shape" fill="#FFFFFF"></path>
            <path d="M17.6806,11.1366 C15.1276,11.1406 13.2426,9.3086 13.2386,6.8266 C13.2346,4.3446 15.1146,2.5066 17.6666,2.5026 C20.2206,2.4986 22.1056,4.3176 22.1096,6.8126 C22.1136,9.3066 20.2336,11.1336 17.6806,11.1366 Z M17.6695,3.8696 C16.0105,3.8716 14.7775,5.1086 14.7795,6.8236 C14.7825,8.5396 16.0195,9.7716 17.6785,9.7696 C19.3375,9.7666 20.5705,8.5306 20.5685,6.8146 C20.5655,5.0996 19.3285,3.8666 17.6695,3.8696 Z" id="Combined-Shape" fill="#FFFFFF"></path>
            <polygon id="Path" fill="#FFFFFF" points="34.9776 10.9906 33.4486 10.9926 33.4436 8.0536 30.2006 2.6016 31.8356 2.5996 34.2536 6.6856 36.6826 2.5926 38.1886 2.5906 34.9736 8.0276"></polygon>
            <path d="M5.2206,6.8386 C5.2166,4.3326 7.0966,2.5176 9.6256,2.5136 C10.9666,2.5116 12.1206,3.0026 12.8866,3.9126 L11.8996,4.8616 C11.2996,4.2026 10.5576,3.8806 9.6986,3.8816 C7.9926,3.8846 6.7596,5.1086 6.7616,6.8366 C6.7646,8.5626 8.0016,9.7846 9.7076,9.7816 C10.5666,9.7806 11.3076,9.4556 11.9056,8.7836 L12.8956,9.7416 C12.1326,10.6536 10.9806,11.1476 9.6276,11.1496 C7.1096,11.1536 5.2246,9.3446 5.2206,6.8386 Z" id="Path" fill="#FFFFFF"></path>
            <path d="M41.8136,0.5006 L1.0836,0.5006 C0.765417773,0.5006 0.4996,0.777260563 0.4996,1.1286 L0.4996,12.4106 C0.4996,12.7619394 0.765417773,13.0386 1.0836,13.0386 L41.8136,13.0386 C42.1308624,13.0386 42.3966,12.7618465 42.3966,12.4106 L42.3966,1.1286 C42.3966,0.777353471 42.1308624,0.5006 41.8136,0.5006 Z" id="Path" stroke="#FFFFFF"></path>
        </g>
    </g>
</svg>