<svg xmlns="http://www.w3.org/2000/svg" width="32" height="12" viewBox="0 0 32 12">
    <g fill="none" fill-rule="evenodd" opacity=".6">
        <rect width="31" height="11" x=".5" y=".5" stroke="#FFF" rx="1"/>
        <path fill="#FFF" d="M9.233 8.32c-.317 0-.612-.06-.886-.179a1.998 1.998 0 0 1-.71-.521 2.446 2.446 0 0 1-.469-.836A3.454 3.454 0 0 1 7 5.667c0-.415.057-.787.172-1.116.114-.33.272-.61.476-.84.203-.232.443-.408.72-.529.278-.121.58-.182.907-.182a1.812 1.812 0 0 1 .83.196 1.992 1.992 0 0 1 .577.441l-.35.42a1.761 1.761 0 0 0-.458-.353 1.236 1.236 0 0 0-.592-.137 1.45 1.45 0 0 0-1.172.556c-.143.18-.252.398-.33.655a3.018 3.018 0 0 0-.115.868c0 .322.037.614.112.875.075.261.18.483.319.665.137.182.304.322.5.42.196.098.418.147.665.147.247 0 .467-.051.658-.154.191-.103.369-.243.532-.42l.357.406c-.205.238-.435.42-.69.546a1.97 1.97 0 0 1-.885.189zm4.2 0a2.09 2.09 0 0 1-.885-.186 1.972 1.972 0 0 1-.694-.532 2.491 2.491 0 0 1-.451-.843 3.6 3.6 0 0 1-.161-1.113c0-.41.054-.78.161-1.106a2.46 2.46 0 0 1 .451-.833c.194-.229.425-.404.693-.525.269-.121.564-.182.886-.182.322 0 .617.06.886.182.268.121.499.296.692.525.194.229.345.506.452.833.107.327.161.695.161 1.106a3.6 3.6 0 0 1-.161 1.113 2.491 2.491 0 0 1-.451.843 1.972 1.972 0 0 1-.694.532 2.09 2.09 0 0 1-.885.186zm0-.567c.229 0 .437-.05.627-.15.189-.1.35-.242.482-.424a2.04 2.04 0 0 0 .309-.662 3.24 3.24 0 0 0 .108-.871 3.2 3.2 0 0 0-.108-.868 2.002 2.002 0 0 0-.309-.654 1.362 1.362 0 0 0-.482-.413 1.367 1.367 0 0 0-.627-.144c-.233 0-.443.048-.63.144a1.371 1.371 0 0 0-.48.413c-.133.18-.235.397-.307.654a3.2 3.2 0 0 0-.109.868c0 .322.036.612.109.872.072.259.174.479.307.661.134.182.293.323.48.424.187.1.397.15.63.15zm3.297-4.655h1.463c.29 0 .552.026.787.077.236.051.438.136.606.256.168.119.299.274.392.465.093.191.14.427.14.707 0 .27-.045.506-.136.707-.092.2-.221.366-.389.497-.168.13-.367.227-.599.29a2.91 2.91 0 0 1-.766.095h-.847v2.037h-.651V3.098zm1.414 2.569c.453 0 .787-.085 1.005-.255.217-.17.325-.44.325-.809 0-.369-.113-.624-.34-.766-.226-.143-.565-.214-1.018-.214h-.735v2.044h.763zm3.843.567l-1.54-3.136h.693l.658 1.449.245.556c.08.18.166.368.259.564h.028l.266-.563c.084-.18.166-.366.245-.557l.665-1.449h.672l-1.54 3.136v1.995h-.651V6.234z"/>
    </g>
</svg>
