<?xml version="1.0" encoding="UTF-8"?>
<svg width="130px" height="23px" viewBox="0 0 130 23" version="1.1" xmlns="http://www.w3.org/2000/svg" xmlns:xlink="http://www.w3.org/1999/xlink">
    <!-- Generator: Sketch 52.5 (67469) - http://www.bohemiancoding.com/sketch -->
    <title>CodechainLogo_White</title>
    <desc>Created with Sketch.</desc>
    <defs>
        <polygon id="path-1" points="0 0.0869682407 23.1627505 0.0869682407 23.1627505 22.8872211 0 22.8872211"></polygon>
        <polygon id="path-3" points="0 22.9130735 129.981216 22.9130735 129.981216 0.112745098 0 0.112745098"></polygon>
    </defs>
    <g id="CodechainLogo_White" stroke="none" stroke-width="1" fill="none" fill-rule="evenodd">
        <g id="Group-23">
            <path d="M17.5465982,11.1332064 C14.6362018,11.1332064 12.2683692,8.80242696 12.2683692,5.93734853 C12.2683692,3.07249559 14.6362018,0.741716176 17.5465982,0.741716176 C20.4569947,0.741716176 22.8248273,3.07249559 22.8248273,5.93734853 C22.8248273,6.6407652 22.2453824,7.21114265 21.5307833,7.21114265 C20.8162987,7.21114265 20.2367392,6.6407652 20.2367392,5.93734853 C20.2367392,4.47718676 19.0299727,3.28930441 17.5465982,3.28930441 C16.0632238,3.28930441 14.8564573,4.47718676 14.8564573,5.93734853 C14.8564573,7.39773578 16.0632238,8.58573088 17.5465982,8.58573088 C18.2611974,8.58573088 18.8406423,9.15610833 18.8406423,9.85941225 C18.8406423,10.5628289 18.2611974,11.1332064 17.5465982,11.1332064" id="Fill-1" fill="#FFFFFF"></path>
            <g id="Group-5" transform="translate(0.000000, 0.025819)">
                <mask id="mask-2" fill="white">
                    <use xlink:href="#path-1"></use>
                </mask>
                <g id="Clip-4"></g>
                <path d="M12.062889,18.1680495 L11.0036467,18.1680495 C10.5796291,18.1680495 10.2359022,17.8297015 10.2359022,17.4123191 C10.2359022,16.9950495 10.5796291,16.6567015 11.0036467,16.6567015 L12.062889,16.6567015 C12.4867921,16.6567015 12.8305189,16.9950495 12.8305189,17.4123191 C12.8305189,17.8297015 12.4867921,18.1680495 12.062889,18.1680495 M23.1564132,17.1020446 C23.0206863,14.2519613 20.6541137,11.951623 17.7573471,11.8516181 C15.621911,11.7776574 13.7420079,12.8800789 12.7328185,14.5514123 C12.4971004,14.9415103 12.0777789,15.1880838 11.6166511,15.1880838 L11.5459815,15.1880838 C11.0849683,15.1880838 10.6656467,14.9415103 10.4300432,14.5514123 C9.95013128,13.7566721 9.27310044,13.091025 8.46561145,12.6188485 C8.46492423,12.6183975 8.464237,12.6179466 8.46343524,12.6176083 C8.07022819,12.3879466 7.8215674,11.9786819 7.8215674,11.5284907 L7.8215674,11.4457358 C7.8215674,10.9956574 8.07022819,10.5862799 8.46343524,10.3567309 C10.1103692,9.39524069 11.2147392,7.62807402 11.2147392,5.60655441 C11.2147392,2.47009853 8.55712687,-0.0553916667 5.3374793,0.0932063725 C2.44208722,0.226809314 0.105294273,2.55634853 0.00358502203,5.4077848 C-0.0714370044,7.50980441 1.04839559,9.36028971 2.74629868,10.3537995 C3.14259824,10.5857162 3.39320617,10.998476 3.39320617,11.4523877 L3.39320617,11.5218387 C3.39320617,11.9757505 3.14259824,12.3885103 2.74629868,12.620427 C2.74228987,12.6227946 2.73816652,12.6251623 2.73415771,12.6275299 L2.74480969,12.6265152 C2.7561489,12.6197505 2.76806079,12.6140005 2.7794,12.6074613 C1.19351454,13.5262211 0.0973911894,15.189775 0.0063339207,17.1020446 C-0.144626432,20.2711966 2.42101233,22.8872211 5.60732952,22.8872211 C7.6609859,22.8872211 9.45624581,21.8002456 10.4330211,20.1790838 C10.6662194,19.7919172 11.0821048,19.5471475 11.5393383,19.5471475 L11.6234088,19.5471475 C12.0806423,19.5471475 12.4965278,19.7919172 12.729726,20.1790838 C13.7065013,21.8002456 15.5017612,22.8872211 17.5554176,22.8872211 C20.7417348,22.8872211 23.3073736,20.2711966 23.1564132,17.1020446" id="Fill-3" fill="#FFFFFF" mask="url(#mask-2)"></path>
            </g>
            <path d="M38.3348123,10.5924922 C38.0141075,10.1506441 37.4155348,9.81398725 36.7529357,9.81398725 C35.1499841,9.81398725 34.1880987,10.8660118 34.1880987,12.4018255 C34.1880987,13.9376392 35.1499841,14.9897765 36.7529357,14.9897765 C37.4583718,14.9897765 37.971385,14.6320363 38.3348123,14.2112716 L40.4508916,16.3994284 C39.4461692,17.4092863 37.971385,17.7670265 36.7529357,17.7670265 C33.5468035,17.7670265 30.9819665,15.6629775 30.9819665,12.4018255 C30.9819665,9.14067353 33.5468035,7.03673725 36.7529357,7.03673725 C37.971385,7.03673725 39.4461692,7.39447745 40.4508916,8.40433529 L38.3348123,10.5924922 Z" id="Fill-6" fill="#FFFFFF"></path>
            <path d="M46.9905445,14.9897765 C48.5936106,14.9897765 49.5556106,13.9376392 49.5556106,12.4018255 C49.5556106,10.8660118 48.5936106,9.81398725 46.9905445,9.81398725 C45.387593,9.81398725 44.425593,10.8660118 44.425593,12.4018255 C44.425593,13.9376392 45.387593,14.9897765 46.9905445,14.9897765 M46.9905445,7.03673725 C50.1967912,7.03673725 52.7617427,9.14067353 52.7617427,12.4018255 C52.7617427,15.6629775 50.1967912,17.7670265 46.9905445,17.7670265 C43.7844123,17.7670265 41.2194608,15.6629775 41.2194608,12.4018255 C41.2194608,9.14067353 43.7844123,7.03673725 46.9905445,7.03673725" id="Fill-8" fill="#FFFFFF"></path>
            <path d="M60.0278035,9.81395343 C58.424852,9.81395343 57.462852,10.8659779 57.462852,12.4017917 C57.462852,13.9376054 58.424852,14.9897426 60.0278035,14.9897426 C61.6309841,14.9897426 62.5929841,13.9376054 62.5929841,12.4017917 C62.5929841,10.8659779 61.6309841,9.81395343 60.0278035,9.81395343 Z M65.5424379,17.5144436 L62.5929841,17.5144436 L62.5929841,16.1679289 L62.5500326,16.1679289 C62.0584379,16.9042672 60.8186846,17.7669926 59.3653189,17.7669926 C56.2873542,17.7669926 54.2568344,15.578723 54.2568344,12.4858995 C54.2568344,9.64573775 56.0523233,7.03670343 59.0018916,7.03670343 C60.3272044,7.03670343 61.5668432,7.39444363 62.2934687,8.38333088 L62.3363057,8.38333088 L62.3363057,1.60847794 L65.5424379,1.60847794 L65.5424379,17.5144436 Z" id="Fill-10" fill="#FFFFFF"></path>
            <path d="M75.2240361,11.2446324 C75.2454546,10.1927206 74.4118511,9.30902451 73.2576573,9.30902451 C71.8468996,9.30902451 71.077437,10.2557451 70.9919921,11.2446324 L75.2240361,11.2446324 Z M77.9385736,15.7471078 C76.9126617,17.030598 75.2240361,17.767049 73.5568291,17.767049 C70.3506969,17.767049 67.7858599,15.6628873 67.7858599,12.401848 C67.7858599,9.14069608 70.3506969,7.0367598 73.5568291,7.0367598 C76.5492344,7.0367598 78.4302828,9.14069608 78.4302828,12.401848 L78.4302828,13.3906225 L70.9919921,13.3906225 C71.2484414,14.5898922 72.1674899,15.3683971 73.4073577,15.3683971 C74.4545736,15.3683971 75.1598952,14.8423284 75.6943269,14.1269608 L77.9385736,15.7471078 Z" id="Fill-12" fill="#FFFFFF"></path>
            <path d="M87.4067198,10.5924922 C87.086015,10.1506441 86.4875568,9.81398725 85.8248432,9.81398725 C84.2218916,9.81398725 83.2600062,10.8660118 83.2600062,12.4018255 C83.2600062,13.9376392 84.2218916,14.9897765 85.8248432,14.9897765 C86.5303938,14.9897765 87.0432925,14.6320363 87.4067198,14.2112716 L89.5227991,16.3994284 C88.5180767,17.4092863 87.0432925,17.7670265 85.8248432,17.7670265 C82.618711,17.7670265 80.053874,15.6629775 80.053874,12.4018255 C80.053874,9.14067353 82.618711,7.03673725 85.8248432,7.03673725 C87.0432925,7.03673725 88.5180767,7.39447745 89.5227991,8.40433529 L87.4067198,10.5924922 Z" id="Fill-14" fill="#FFFFFF"></path>
            <path d="M93.8824493,1.60844412 L93.8824493,8.67778725 L93.9250573,8.67778725 C94.2242291,7.87819902 95.2717885,7.03666961 96.8320176,7.03666961 C100.080987,7.03666961 100.679445,9.14071863 100.679445,11.8756892 L100.679445,17.5144098 L97.4733128,17.5144098 L97.4733128,12.506949 C97.4733128,11.3287627 97.4518943,9.81391961 95.8061057,9.81391961 C94.1387841,9.81391961 93.8824493,11.0974098 93.8824493,12.4228412 L93.8824493,17.5144098 L90.6762026,17.5144098 L90.6762026,1.60844412 L93.8824493,1.60844412 Z" id="Fill-16" fill="#FFFFFF"></path>
            <path d="M108.672429,13.0330289 C107.689125,13.0330289 105.509134,13.1171368 105.509134,14.5057054 C105.509134,15.2632397 106.321204,15.6208672 107.026641,15.6208672 C108.287698,15.6208672 109.46331,14.9687495 109.46331,13.7063426 L109.46331,13.0330289 L108.672429,13.0330289 Z M109.46331,16.2310436 L109.420473,16.2310436 C108.715266,17.3251221 107.43279,17.7669701 106.128781,17.7669701 C104.183821,17.7669701 102.431169,16.6728917 102.431169,14.6110093 C102.431169,11.0764505 106.791495,11.0132005 109.46331,11.0132005 C109.46331,9.89803873 108.522843,9.18278382 107.411257,9.18278382 C106.364041,9.18278382 105.487601,9.6457152 104.803698,10.4031368 L103.093768,8.67779853 C104.269381,7.58383284 105.97931,7.03668088 107.667821,7.03668088 C111.40827,7.03668088 112.412878,8.90926422 112.412878,12.3175485 L112.412878,17.5144211 L109.46331,17.5144211 L109.46331,16.2310436 Z" id="Fill-18" fill="#FFFFFF"></path>
            <mask id="mask-4" fill="white">
                <use xlink:href="#path-3"></use>
            </mask>
            <g id="Clip-21"></g>
            <path d="M114.464026,17.5143873 L117.670044,17.5143873 L117.670044,7.28919608 L114.464026,7.28919608 L114.464026,17.5143873 Z M116.066978,2.23968137 C117.093004,2.23968137 117.926722,3.06012745 117.926722,4.07009804 C117.926722,5.07995588 117.093004,5.90062745 116.066978,5.90062745 C115.041066,5.90062745 114.207463,5.07995588 114.207463,4.07009804 C114.207463,3.06012745 115.041066,2.23968137 116.066978,2.23968137 Z" id="Fill-20" fill="#FFFFFF" mask="url(#mask-4)"></path>
            <path d="M119.977974,7.28919608 L123.055938,7.28919608 L123.055938,8.67776471 L123.098775,8.67776471 C123.526229,7.87828922 124.573559,7.0367598 126.133903,7.0367598 C129.382872,7.0367598 129.981216,9.14069608 129.981216,11.8757794 L129.981216,17.5143873 L126.775198,17.5143873 L126.775198,12.5069265 C126.775198,11.3287402 126.75378,9.8140098 125.107991,9.8140098 C123.440555,9.8140098 123.184335,11.0973873 123.184335,12.4228186 L123.184335,17.5143873 L119.977974,17.5143873 L119.977974,7.28919608 Z" id="Fill-22" fill="#FFFFFF" mask="url(#mask-4)"></path>
        </g>
    </g>
</svg>