<?xml version="1.0" encoding="UTF-8"?>
<svg width="28px" height="28px" viewBox="0 0 28 28" version="1.1" xmlns="http://www.w3.org/2000/svg" xmlns:xlink="http://www.w3.org/1999/xlink">
    <!-- Generator: Sketch 52.5 (67469) - http://www.bohemiancoding.com/sketch -->
    <title>github</title>
    <desc>Created with Sketch.</desc>
    <defs>
        <polygon id="path-1" points="0 0 27.9996 0 27.9996 27.9999164 0 27.9999164"></polygon>
    </defs>
    <g id="github" stroke="none" stroke-width="1" fill="none" fill-rule="evenodd" opacity="0.8">
        <g id="Group-3">
            <mask id="mask-2" fill="white">
                <use xlink:href="#path-1"></use>
            </mask>
            <g id="Clip-2"></g>
            <path d="M13.9986,-0.0004 C6.2696,-0.0004 -0.0004,6.4266 -0.0004,14.3546 C-0.0004,20.6966 4.0116,26.0766 9.5746,27.9756 C10.2746,28.1066 10.5296,27.6636 10.5296,27.2836 C10.5296,26.9426 10.5186,26.0396 10.5116,24.8426 C6.6166,25.7096 5.7956,22.9176 5.7956,22.9176 C5.1586,21.2596 4.2406,20.8176 4.2406,20.8176 C2.9696,19.9276 4.3376,19.9456 4.3376,19.9456 C5.7416,20.0476 6.4806,21.4246 6.4806,21.4246 C7.7296,23.6186 9.7586,22.9846 10.5566,22.6176 C10.6836,21.6896 11.0446,21.0576 11.4446,20.6986 C8.3356,20.3366 5.0676,19.1046 5.0676,13.6046 C5.0676,12.0366 5.6126,10.7556 6.5086,9.7526 C6.3646,9.3896 5.8846,7.9296 6.6456,5.9536 C6.6456,5.9536 7.8216,5.5666 10.4956,7.4246 C11.6126,7.1056 12.8106,6.9466 14.0006,6.9416 C15.1896,6.9466 16.3876,7.1056 17.5056,7.4246 C20.1786,5.5666 21.3526,5.9536 21.3526,5.9536 C22.1156,7.9296 21.6356,9.3896 21.4906,9.7526 C22.3886,10.7556 22.9306,12.0366 22.9306,13.6046 C22.9306,19.1186 19.6566,20.3316 16.5376,20.6876 C17.0406,21.1306 17.4886,22.0066 17.4886,23.3456 C17.4886,25.2646 17.4716,26.8126 17.4716,27.2836 C17.4716,27.6676 17.7236,28.1136 18.4346,27.9736 C23.9926,26.0716 27.9996,20.6946 27.9996,14.3546 C27.9996,6.4266 21.7306,-0.0004 13.9986,-0.0004" id="Fill-1" fill="#FFFFFF" mask="url(#mask-2)"></path>
        </g>
    </g>
</svg>