<?xml version="1.0" encoding="UTF-8"?>
<svg width="28px" height="28px" viewBox="0 0 28 28" version="1.1" xmlns="http://www.w3.org/2000/svg" xmlns:xlink="http://www.w3.org/1999/xlink">
    <!-- Generator: Sketch 52.5 (67469) - http://www.bohemiancoding.com/sketch -->
    <title>medium</title>
    <desc>Created with Sketch.</desc>
    <defs>
        <polygon id="path-1" points="0.0001 1.77635684e-14 28 1.77635684e-14 28 27.9994 0.0001 27.9994"></polygon>
    </defs>
    <g id="medium" stroke="none" stroke-width="1" fill="none" fill-rule="evenodd" opacity="0.8">
        <g id="Group">
            <mask id="mask-2" fill="white">
                <use xlink:href="#path-1"></use>
            </mask>
            <g id="Clip-2"></g>
            <path d="M1,27 L1,1 L27,1 L27,27 L1,27 Z M7.20453392,9.695466 L7.20453392,17.4154692 C7.25200992,17.6939708 7.16420272,17.978442 6.96799632,18.1817308 L5.13333232,20.4073308 L5.13333232,20.7006628 L10.3357347,20.7006628 L10.3357347,20.407206 L8.50107072,18.1817308 C8.30344992,17.9787748 8.21021392,17.6961756 8.24826752,17.4154692 L8.24826752,10.7389292 L12.8146683,20.7006628 L13.3447979,20.7006628 L17.2670643,10.7389292 L17.2670643,18.6790692 C17.2670643,18.890938 17.2670643,18.931602 17.1284011,19.0702652 L15.7177347,20.439862 L15.7177347,20.7333292 L22.5673307,20.7333292 L22.5673307,20.439862 L21.2055963,19.1029316 C21.0853931,19.0113076 21.0257595,18.8606844 21.0506571,18.7116004 L21.0506571,8.8883948 C21.0257595,8.7393108 21.0853931,8.588698 21.2055963,8.4970636 L22.5999971,7.1601332 L22.5999971,6.866666 L17.7726707,6.866666 L14.3313419,15.4507948 L10.4173331,6.866666 L5.35333392,6.866666 L5.35333392,7.159998 L6.98439712,9.1247972 C7.14448432,9.2690972 7.22623872,9.4810388 7.20453392,9.695466 Z" id="Combined-Shape" fill="#FFFFFF" mask="url(#mask-2)"></path>
        </g>
    </g>
</svg>