<?xml version="1.0" encoding="UTF-8"?>
<svg width="28px" height="28px" viewBox="0 0 28 28" version="1.1" xmlns="http://www.w3.org/2000/svg" xmlns:xlink="http://www.w3.org/1999/xlink">
    <!-- Generator: Sketch 52.5 (67469) - http://www.bohemiancoding.com/sketch -->
    <title>twitter</title>
    <desc>Created with Sketch.</desc>
    <defs>
        <polygon id="path-1" points="0 0 27.9994 0 27.9994 27.9994 0 27.9994"></polygon>
    </defs>
    <g id="twitter" stroke="none" stroke-width="1" fill="none" fill-rule="evenodd" opacity="0.8">
        <g id="Group-3">
            <mask id="mask-2" fill="white">
                <use xlink:href="#path-1"></use>
            </mask>
            <g id="Clip-2"></g>
            <path d="M21.1364,10.3404 C21.1444,10.4974 21.1484,10.6564 21.1484,10.8164 C21.1484,15.6834 17.4434,21.2954 10.6684,21.2954 C8.5894,21.2954 6.6544,20.6854 5.0234,19.6404 C5.3124,19.6744 5.6054,19.6924 5.9024,19.6924 C7.6274,19.6924 9.2154,19.1034 10.4764,18.1144 C8.8654,18.0854 7.5044,17.0204 7.0354,15.5574 C7.2614,15.6004 7.4914,15.6224 7.7294,15.6224 C8.0654,15.6224 8.3904,15.5774 8.6994,15.4934 C7.0154,15.1544 5.7454,13.6664 5.7454,11.8824 L5.7454,11.8354 C6.2574,12.1204 6.8284,12.2784 7.4134,12.2964 C6.4264,11.6364 5.7764,10.5084 5.7764,9.2314 C5.7764,8.5564 5.9574,7.9234 6.2744,7.3794 C8.0904,9.6074 10.8044,11.0734 13.8654,11.2274 C13.8034,10.9574 13.7714,10.6764 13.7714,10.3884 C13.7714,8.3534 15.4194,6.7044 17.4524,6.7044 C18.5124,6.7044 19.4704,7.1524 20.1414,7.8674 C20.9664,7.7054 21.7574,7.4024 22.4814,6.9734 C22.2054,7.8334 21.6224,8.5554 20.8614,9.0114 C21.6074,8.9224 22.3164,8.7244 22.9764,8.4314 C22.4814,9.1714 21.8584,9.8184 21.1364,10.3404 M13.9994,-0.0006 C6.2684,-0.0006 -0.0006,6.2684 -0.0006,13.9994 C-0.0006,21.7324 6.2684,27.9994 13.9994,27.9994 C21.7324,27.9994 27.9994,21.7324 27.9994,13.9994 C27.9994,6.2684 21.7324,-0.0006 13.9994,-0.0006" id="Fill-1" fill="#FFFFFF" mask="url(#mask-2)"></path>
        </g>
    </g>
</svg>