<svg xmlns="http://www.w3.org/2000/svg" xmlns:xlink="http://www.w3.org/1999/xlink" width="43" height="15" viewBox="0 0 43 15">
    <defs>
        <path id="a" d="M0 .462h42.897V14H0z"/>
    </defs>
    <g fill="none" fill-rule="evenodd">
        <path fill="#FFF" d="M26.735 4.927l-1.788.003.005 3.334 1.788-.003c1.342-.002 2.035-.614 2.033-1.67-.002-1.056-.697-1.666-2.038-1.664M17.67 4.87c-1.66.002-2.893 1.239-2.89 2.954.003 1.716 1.24 2.948 2.899 2.946 1.659-.003 2.892-1.24 2.89-2.955-.003-1.715-1.24-2.948-2.9-2.945"/>
        <g transform="translate(0 .538)">
            <mask id="b" fill="#fff">
                <use xlink:href="#a"/>
            </mask>
            <path fill="#FFF" d="M34.978 11.452l-1.53.002-.004-2.939L30.2 3.063l1.635-.002 2.418 4.086 2.429-4.093 1.506-.002-3.215 5.437.004 2.963zm-8.165-2.41l-1.858.003.003 2.423-1.53.002-.012-8.396 3.388-.005c2.165-.004 3.507 1.122 3.51 2.981.003 1.847-1.336 2.988-3.501 2.992zm-9.132 2.556c-2.553.004-4.438-1.828-4.442-4.31-.004-2.482 1.876-4.32 4.428-4.324 2.554-.004 4.439 1.815 4.443 4.31.004 2.494-1.876 4.321-4.43 4.324zm-8.053.013c-2.518.004-4.403-1.805-4.407-4.31-.004-2.507 1.876-4.322 4.405-4.326 1.34-.002 2.495.49 3.26 1.4l-.986.948c-.6-.659-1.342-.98-2.201-.98-1.706.003-2.94 1.227-2.937 2.955.003 1.726 1.24 2.948 2.946 2.945.859 0 1.6-.326 2.198-.998l.99.958c-.763.912-1.915 1.406-3.268 1.408zM41.814.462H1.084C.484.462 0 .967 0 1.59v11.282C0 13.495.485 14 1.084 14h40.73c.598 0 1.083-.505 1.083-1.128V1.59c0-.623-.485-1.128-1.083-1.128z" mask="url(#b)"/>
        </g>
    </g>
</svg>
