<svg xmlns="http://www.w3.org/2000/svg" width="96" height="96" viewBox="0 0 96 96">
    <g fill="none" fill-rule="evenodd">
        <path fill-rule="nonzero" stroke="#93A8EA" d="M95 48c0 25.958-21.044 47-47.001 47C22.042 95 1 73.958 1 48S22.042 1 47.999 1"/>
        <path fill="#D8D8D8" fill-rule="nonzero" d="M73.019 26.737c-11.575-11.575-30.409-11.575-41.984 0-5.022 5.022-8.015 11.528-8.587 18.528H14.71L25.47 56.81l10.76-11.544h-7.093c.552-5.218 2.848-10.054 6.61-13.816 8.977-8.977 23.583-8.977 32.56 0 8.977 8.977 8.977 23.583 0 32.56-8.977 8.975-23.583 8.975-32.56 0l-4.712 4.711c5.788 5.788 13.39 8.681 20.992 8.681s15.204-2.893 20.992-8.681c11.575-11.575 11.575-30.408 0-41.983"/>
        <path fill="#D8D8D8" d="M49.94 32.385V48.41l10.74 10.741 3.368-3.368-9.345-9.345V32.385z"/>
        <g fill="#93A8EA">
            <path fill-rule="nonzero" d="M70.47 24.266c-11.538-11.573-30.313-11.573-41.851 0a29.495 29.495 0 0 0-8.56 18.526h-7.714L23.07 54.335l10.726-11.543h-7.07a22.869 22.869 0 0 1 6.589-13.814c8.948-8.976 23.508-8.976 32.457 0 8.949 8.975 8.949 23.58 0 32.555-8.949 8.974-23.51 8.974-32.457 0l-4.697 4.71c5.769 5.788 13.347 8.68 20.925 8.68 7.578 0 15.157-2.892 20.926-8.68 11.539-11.573 11.539-30.404 0-41.977"/>
            <path d="M47.546 29.52v16.47l11.007 11.04 3.45-3.462-9.576-9.605V29.521z"/>
        </g>
    </g>
</svg>
