<svg xmlns="http://www.w3.org/2000/svg" width="96" height="96" viewBox="0 0 96 96">
    <g fill="none" fill-rule="evenodd">
        <path stroke="#FFF" d="M95 48c0 25.958-21.044 47-47.001 47C22.042 95 1 73.958 1 48S22.042 1 47.999 1"/>
        <path fill="#F9F9F9" fill-rule="nonzero" d="M70.47 24.266c-11.538-11.573-30.313-11.573-41.851 0a29.495 29.495 0 0 0-8.56 18.526h-7.714L23.07 54.335l10.726-11.543h-7.07a22.869 22.869 0 0 1 6.589-13.814c8.948-8.976 23.508-8.976 32.457 0 8.949 8.975 8.949 23.58 0 32.555-8.949 8.974-23.51 8.974-32.457 0l-4.697 4.71c5.769 5.788 13.347 8.68 20.925 8.68 7.578 0 15.157-2.892 20.926-8.68 11.539-11.573 11.539-30.404 0-41.977"/>
        <path fill="#F9F9F9" d="M47.546 29.52v16.47l11.007 11.04 3.45-3.462-9.576-9.605V29.521z"/>
    </g>
</svg>
