<svg xmlns="http://www.w3.org/2000/svg" width="116" height="116" viewBox="0 0 116 116">
    <g fill="none" fill-rule="evenodd">
        <path stroke="#4A8FFF" d="M116 58c0 32.033-25.969 58-58.001 58C25.966 116 0 90.033 0 58S25.966 0 57.999 0"/>
        <g fill="#D8D8D8">
            <path d="M35.126 70.36l6.305 6.421L57.227 60.69v37.222h8.916V60.69L81.94 76.78l6.305-6.422-26.559-27.056zM23.376 41.443h75.666V33.16H23.376z"/>
        </g>
        <g fill="#4A8FFF">
            <path d="M32.126 66.36l6.305 6.421L54.227 56.69v37.222h8.916V56.69L78.94 72.78l6.305-6.422-26.559-27.056zM20.376 37.443h75.666V29.16H20.376z"/>
        </g>
    </g>
</svg>
