<?xml version="1.0" encoding="UTF-8"?>
<svg width="43px" height="15px" viewBox="0 0 43 15" version="1.1" xmlns="http://www.w3.org/2000/svg" xmlns:xlink="http://www.w3.org/1999/xlink">
    <!-- Generator: Sketch 52.5 (67469) - http://www.bohemiancoding.com/sketch -->
    <title>copy</title>
    <desc>Created with Sketch.</desc>
    <defs>
        <polygon id="path-1" points="0 0.4621 42.8966 0.4621 42.8966 14 0 14"></polygon>
    </defs>
    <g id="copy" stroke="none" stroke-width="1" fill="none" fill-rule="evenodd" opacity="0.6">
        <g id="Group-8">
            <path d="M26.7349,4.9272 L24.9469,4.9302 L24.9519,8.2642 L26.7399,8.2612 C28.0819,8.2592 28.7749,7.6472 28.7729,6.5912 C28.7709,5.5352 28.0759,4.9252 26.7349,4.9272" id="Fill-1" fill="#FFFFFF"></path>
            <path d="M17.6695,4.8696 C16.0105,4.8716 14.7775,6.1086 14.7795,7.8236 C14.7825,9.5396 16.0195,10.7716 17.6785,10.7696 C19.3375,10.7666 20.5705,9.5306 20.5685,7.8146 C20.5655,6.0996 19.3285,4.8666 17.6695,4.8696" id="Fill-3" fill="#FFFFFF"></path>
            <g id="Group-7" transform="translate(0.000000, 0.538500)">
                <mask id="mask-2" fill="white">
                    <use xlink:href="#path-1"></use>
                </mask>
                <g id="Clip-6"></g>
                <path d="M34.9776,11.4521 L33.4486,11.4541 L33.4436,8.5151 L30.2006,3.0631 L31.8356,3.0611 L34.2536,7.1471 L36.6826,3.0541 L38.1886,3.0521 L34.9736,8.4891 L34.9776,11.4521 Z M26.8126,9.0421 L24.9546,9.0451 L24.9576,11.4681 L23.4286,11.4701 L23.4156,3.0741 L26.8036,3.0691 C28.9686,3.0651 30.3106,4.1911 30.3136,6.0501 C30.3166,7.8971 28.9776,9.0381 26.8126,9.0421 Z M17.6806,11.5981 C15.1276,11.6021 13.2426,9.7701 13.2386,7.2881 C13.2346,4.8061 15.1146,2.9681 17.6666,2.9641 C20.2206,2.9601 22.1056,4.7791 22.1096,7.2741 C22.1136,9.7681 20.2336,11.5951 17.6806,11.5981 Z M9.6276,11.6111 C7.1096,11.6151 5.2246,9.8061 5.2206,7.3001 C5.2166,4.7941 7.0966,2.9791 9.6256,2.9751 C10.9666,2.9731 12.1206,3.4641 12.8866,4.3741 L11.8996,5.3231 C11.2996,4.6641 10.5576,4.3421 9.6986,4.3431 C7.9926,4.3461 6.7596,5.5701 6.7616,7.2981 C6.7646,9.0241 8.0016,10.2461 9.7076,10.2431 C10.5666,10.2421 11.3076,9.9171 11.9056,9.2451 L12.8956,10.2031 C12.1326,11.1151 10.9806,11.6091 9.6276,11.6111 Z M41.8136,0.4621 L1.0836,0.4621 C0.4846,0.4621 -0.0004,0.9671 -0.0004,1.5901 L-0.0004,12.8721 C-0.0004,13.4951 0.4846,14.0001 1.0836,14.0001 L41.8136,14.0001 C42.4116,14.0001 42.8966,13.4951 42.8966,12.8721 L42.8966,1.5901 C42.8966,0.9671 42.4116,0.4621 41.8136,0.4621 Z" id="Fill-5" fill="#FFFFFF" mask="url(#mask-2)"></path>
            </g>
        </g>
    </g>
</svg>