<svg xmlns="http://www.w3.org/2000/svg" xmlns:xlink="http://www.w3.org/1999/xlink" width="15" height="15" viewBox="0 0 15 15">
    <defs>
        <path id="a" d="M0 0h14.262v14.263H0z"/>
    </defs>
    <g fill="none" fill-rule="evenodd">
        <path fill="#FF5B5B" d="M6.016 2.886h2.23l-.371 5.48H6.388l-.372-5.48zm-.036 7.4c0-.612.48-1.067 1.152-1.067.67 0 1.15.455 1.15 1.067 0 .6-.48 1.09-1.15 1.09-.672 0-1.152-.49-1.152-1.09z"/>
        <mask id="b" fill="#fff">
            <use xlink:href="#a"/>
        </mask>
        <path fill="#FF5B5B" d="M7.131 12.878A5.753 5.753 0 0 1 1.384 7.13a5.753 5.753 0 0 1 5.747-5.746 5.752 5.752 0 0 1 5.746 5.746 5.753 5.753 0 0 1-5.746 5.747M7.131 0C3.2 0 .001 3.199.001 7.13c0 3.934 3.198 7.133 7.13 7.133s7.131-3.2 7.131-7.132C14.262 3.199 11.063 0 7.132 0" mask="url(#b)"/>
    </g>
</svg>
