<?xml version="1.0" encoding="UTF-8"?>
<svg width="28px" height="28px" viewBox="0 0 28 28" version="1.1" xmlns="http://www.w3.org/2000/svg" xmlns:xlink="http://www.w3.org/1999/xlink">
    <!-- Generator: Sketch 54.1 (76490) - https://sketchapp.com -->
    <title>telegram</title>
    <desc>Created with Sketch.</desc>
    <g id="Page-1" stroke="none" stroke-width="1" fill="none" fill-rule="evenodd" fill-opacity="0.8">
        <g id="Artboard" transform="translate(-365.000000, -211.000000)" fill="#FFFFFF" fill-rule="nonzero">
            <g id="telegram" transform="translate(365.000000, 211.000000)">
                <path d="M14,0 C6.26612903,0 0,6.26612903 0,14 C0,21.733871 6.26612903,28 14,28 C21.733871,28 28,21.733871 28,14 C28,6.26612903 21.733871,0 14,0 Z M20.8758065,9.59112903 L18.5782258,20.4185484 C18.408871,21.1862903 17.9516129,21.3725806 17.3137097,21.0112903 L13.8137097,18.4314516 L12.1258065,20.0572581 C11.9395161,20.2435484 11.7814516,20.4016129 11.4201613,20.4016129 L11.6685484,16.8395161 L18.1548387,10.9798387 C18.4370968,10.7314516 18.0927419,10.5903226 17.7201613,10.8387097 L9.70403226,15.8854839 L6.24919355,14.8072581 C5.4983871,14.5701613 5.48145161,14.0564516 6.40725806,13.6951613 L19.9048387,8.49032258 C20.5314516,8.26451613 21.0790323,8.64274194 20.8758065,9.59112903 L20.8758065,9.59112903 Z" id="Shape"></path>
            </g>
        </g>
    </g>
</svg>